<?xml version="1.0" encoding="UTF-8" standalone="no"?>
<!-- Created with Inkscape (http://www.inkscape.org/) -->

<svg
   xmlns:dc="http://purl.org/dc/elements/1.1/"
   xmlns:cc="http://creativecommons.org/ns#"
   xmlns:rdf="http://www.w3.org/1999/02/22-rdf-syntax-ns#"
   xmlns:svg="http://www.w3.org/2000/svg"
   xmlns="http://www.w3.org/2000/svg"
   xmlns:sodipodi="http://sodipodi.sourceforge.net/DTD/sodipodi-0.dtd"
   xmlns:inkscape="http://www.inkscape.org/namespaces/inkscape"
   width="144"
   height="256"
   id="svg2"
   version="1.1"
   inkscape:version="0.48.4 r9939"
   sodipodi:docname="MainScreenOg.svg"
   inkscape:export-filename="/home/burritolove/Dropbox/J-CAT/android/assets/art/MainScreenOg.png"
   inkscape:export-xdpi="567.40002"
   inkscape:export-ydpi="567.40002">
  <defs
     id="defs4" />
  <sodipodi:namedview
     id="base"
     pagecolor="#ffffff"
     bordercolor="#666666"
     borderopacity="1.0"
     inkscape:pageopacity="0.0"
     inkscape:pageshadow="2"
     inkscape:zoom="2.8284271"
     inkscape:cx="71.351735"
     inkscape:cy="157.73694"
     inkscape:document-units="px"
     inkscape:current-layer="layer8"
     showgrid="false"
     inkscape:window-width="1280"
     inkscape:window-height="748"
     inkscape:window-x="0"
     inkscape:window-y="24"
     inkscape:window-maximized="1" />
  <metadata
     id="metadata7">
    <rdf:RDF>
      <cc:Work
         rdf:about="">
        <dc:format>image/svg+xml</dc:format>
        <dc:type
           rdf:resource="http://purl.org/dc/dcmitype/StillImage" />
        <dc:title></dc:title>
      </cc:Work>
    </rdf:RDF>
  </metadata>
  <g
     inkscape:groupmode="layer"
     id="layer5"
     inkscape:label="background"
     style="display:inline">
    <rect
       style="fill:#a7ffa7;fill-opacity:1;fill-rule:nonzero;stroke:#000000;stroke-width:0;stroke-linecap:square;stroke-linejoin:round;stroke-miterlimit:4;stroke-opacity:1;stroke-dasharray:none;stroke-dashoffset:0"
       id="rect4033"
       width="146.37132"
       height="257.82086"
       x="0"
       y="-0.12499932"
       ry="0" />
  </g>
  <g
     inkscape:groupmode="layer"
     id="layer10"
     inkscape:label="produced by backdrop">
    <g
       transform="translate(18.738329,10.341437)"
       style="font-size:8px;font-style:normal;font-variant:normal;font-weight:normal;font-stretch:normal;text-align:start;line-height:125%;letter-spacing:0px;word-spacing:0px;writing-mode:lr-tb;text-anchor:start;fill:#bdcb53;fill-opacity:1;stroke:none;font-family:'0xA000-Mono';-inkscape-font-specification:Sans;stroke-width:0.1;stroke-miterlimit:4;stroke-dasharray:none"
       id="flowRoot4141">
      <path
         d="m 67.324219,226.6029 0,2.19141 0.992187,0 c 0.367185,0 0.651039,-0.095 0.851563,-0.28516 0.200517,-0.1901 0.300777,-0.46093 0.300781,-0.8125 -4e-6,-0.34895 -0.100264,-0.61849 -0.300781,-0.80859 -0.200524,-0.1901 -0.484378,-0.28516 -0.851563,-0.28516 l -0.992187,0 m -0.789063,-0.64844 1.78125,0 c 0.653643,10e-6 1.147132,0.14845 1.480469,0.44531 0.335933,0.29428 0.503902,0.72657 0.503906,1.29688 -4e-6,0.57552 -0.167973,1.01042 -0.503906,1.30469 -0.333337,0.29427 -0.826826,0.44141 -1.480469,0.4414 l -0.992187,0 0,2.34375 -0.789063,0 0,-5.83203"
         style="font-weight:300;fill:#bdcb53;font-family:Source Code Pro;-inkscape-font-specification:Source Code Pro Light;fill-opacity:1;stroke-width:0.1;stroke-miterlimit:4;stroke-dasharray:none"
         id="path4158" />
      <path
         d="m 73.726562,228.08337 c -0.08073,-0.0469 -0.169273,-0.0807 -0.265625,-0.10156 -0.09375,-0.0234 -0.197919,-0.0352 -0.3125,-0.0352 -0.406252,0 -0.718751,0.13282 -0.9375,0.39844 -0.216147,0.26302 -0.32422,0.64193 -0.324218,1.13672 l 0,2.30468 -0.722657,0 0,-4.375 0.722657,0 0,0.67969 c 0.15104,-0.26562 0.347654,-0.46223 0.589843,-0.58984 0.242186,-0.13021 0.536456,-0.19531 0.882813,-0.19532 0.04948,1e-5 0.104164,0.004 0.164062,0.0117 0.05989,0.005 0.126299,0.0143 0.199219,0.0274 l 0.0039,0.73828"
         style="font-weight:300;fill:#bdcb53;font-family:Source Code Pro;-inkscape-font-specification:Source Code Pro Light;fill-opacity:1;stroke-width:0.1;stroke-miterlimit:4;stroke-dasharray:none"
         id="path4160" />
      <path
         d="m 76.011719,227.9154 c -0.385419,0 -0.690106,0.15104 -0.914063,0.45312 -0.223959,0.29949 -0.335938,0.71094 -0.335937,1.23438 -10e-7,0.52344 0.110676,0.9362 0.332031,1.23828 0.223957,0.29948 0.529946,0.44922 0.917969,0.44922 0.382809,0 0.686195,-0.15104 0.910156,-0.45313 0.223955,-0.30208 0.335934,-0.71354 0.335937,-1.23437 -3e-6,-0.51823 -0.111982,-0.92838 -0.335937,-1.23047 -0.223961,-0.30468 -0.527347,-0.45703 -0.910156,-0.45703 m 0,-0.60938 c 0.624997,1e-5 1.115882,0.20313 1.472656,0.60938 0.356767,0.40625 0.535152,0.96875 0.535156,1.6875 -4e-6,0.71615 -0.178389,1.27865 -0.535156,1.6875 -0.356774,0.40625 -0.847659,0.60937 -1.472656,0.60937 -0.627606,0 -1.119793,-0.20312 -1.476563,-0.60937 -0.354167,-0.40885 -0.53125,-0.97135 -0.53125,-1.6875 0,-0.71875 0.177083,-1.28125 0.53125,-1.6875 0.35677,-0.40625 0.848957,-0.60937 1.476563,-0.60938"
         style="font-weight:300;fill:#bdcb53;font-family:Source Code Pro;-inkscape-font-specification:Source Code Pro Light;fill-opacity:1;stroke-width:0.1;stroke-miterlimit:4;stroke-dasharray:none"
         id="path4162" />
      <path
         d="m 82.085937,228.07556 0,-2.36719 0.71875,0 0,6.07812 -0.71875,0 0,-0.65625 c -0.151045,0.26042 -0.342451,0.45443 -0.574218,0.58203 -0.22917,0.125 -0.505211,0.1875 -0.828125,0.1875 -0.528648,0 -0.959637,-0.21093 -1.292969,-0.63281 -0.33073,-0.42187 -0.496094,-0.97656 -0.496094,-1.66406 0,-0.6875 0.165364,-1.24218 0.496094,-1.66406 0.333332,-0.42187 0.764321,-0.63281 1.292969,-0.63282 0.322914,1e-5 0.598955,0.0638 0.828125,0.19141 0.231767,0.125 0.423173,0.31771 0.574218,0.57813 m -2.449218,1.52734 c -10e-7,0.52865 0.108071,0.94401 0.324218,1.24609 0.218749,0.29948 0.518228,0.44922 0.898438,0.44922 0.380206,0 0.679684,-0.14974 0.898437,-0.44922 0.218747,-0.30208 0.328122,-0.71744 0.328125,-1.24609 -3e-6,-0.52864 -0.109378,-0.94271 -0.328125,-1.24219 -0.218753,-0.30208 -0.518231,-0.45312 -0.898437,-0.45312 -0.38021,0 -0.679689,0.15104 -0.898438,0.45312 -0.216147,0.29948 -0.324219,0.71355 -0.324218,1.24219"
         style="font-weight:300;fill:#bdcb53;font-family:Source Code Pro;-inkscape-font-specification:Source Code Pro Light;fill-opacity:1;stroke-width:0.1;stroke-miterlimit:4;stroke-dasharray:none"
         id="path4164" />
      <path
         d="m 84.210937,230.05993 0,-2.64844 0.71875,0 0,2.6211 c -10e-7,0.41406 0.08073,0.72526 0.242188,0.93359 0.161457,0.20573 0.403644,0.3086 0.726562,0.30859 0.388019,1e-5 0.694008,-0.12369 0.917969,-0.37109 0.226559,-0.24739 0.33984,-0.58463 0.339844,-1.01172 l 0,-2.48047 0.71875,0 0,4.375 -0.71875,0 0,-0.67187 c -0.174483,0.26562 -0.377607,0.46354 -0.609375,0.59375 -0.229169,0.1276 -0.496096,0.1914 -0.800781,0.1914 -0.502606,0 -0.884116,-0.15625 -1.144532,-0.46875 -0.260417,-0.31249 -0.390625,-0.76953 -0.390625,-1.37109 m 1.808594,-2.75391 0,0"
         style="font-weight:300;fill:#bdcb53;font-family:Source Code Pro;-inkscape-font-specification:Source Code Pro Light;fill-opacity:1;stroke-width:0.1;stroke-miterlimit:4;stroke-dasharray:none"
         id="path4166" />
      <path
         d="m 92.511719,227.57946 0,0.67188 c -0.203129,-0.11198 -0.407556,-0.19531 -0.613282,-0.25 -0.203128,-0.0573 -0.408857,-0.0859 -0.617187,-0.0859 -0.466148,0 -0.828127,0.14844 -1.085938,0.44531 -0.257813,0.29428 -0.386719,0.70834 -0.386718,1.24219 -10e-7,0.53386 0.128905,0.94922 0.386718,1.24609 0.257811,0.29427 0.61979,0.44141 1.085938,0.44141 0.20833,0 0.414059,-0.0273 0.617187,-0.082 0.205726,-0.0573 0.410153,-0.14193 0.613282,-0.25391 l 0,0.66406 c -0.200525,0.0937 -0.408858,0.16407 -0.625,0.21094 -0.213545,0.0469 -0.441409,0.0703 -0.683594,0.0703 -0.658856,0 -1.182293,-0.20703 -1.570313,-0.62109 -0.388021,-0.41406 -0.582031,-0.97265 -0.582031,-1.67578 0,-0.71354 0.195312,-1.27474 0.585938,-1.68359 0.393227,-0.40885 0.930987,-0.61328 1.613281,-0.61329 0.221351,1e-5 0.437497,0.0234 0.648437,0.0703 0.210934,0.0443 0.415361,0.11198 0.613282,0.20312"
         style="font-weight:300;fill:#bdcb53;font-family:Source Code Pro;-inkscape-font-specification:Source Code Pro Light;fill-opacity:1;stroke-width:0.1;stroke-miterlimit:4;stroke-dasharray:none"
         id="path4168" />
      <path
         d="m 97.511719,229.41931 0,0.35156 -3.304688,0 c 0.03125,0.49479 0.179686,0.8724 0.445313,1.13281 0.268227,0.25781 0.640622,0.38672 1.117187,0.38672 0.276039,0 0.542966,-0.0339 0.800781,-0.10156 0.260413,-0.0677 0.518226,-0.16927 0.773438,-0.30469 l 0,0.67969 c -0.257817,0.10937 -0.522139,0.19271 -0.792969,0.25 -0.270836,0.0573 -0.545576,0.0859 -0.824219,0.0859 -0.697918,0 -1.251303,-0.20312 -1.660156,-0.60937 -0.40625,-0.40625 -0.609375,-0.95573 -0.609375,-1.64844 0,-0.71614 0.192708,-1.28385 0.578125,-1.70312 0.38802,-0.42187 0.910155,-0.63281 1.566406,-0.63282 0.588539,1e-5 1.053382,0.19011 1.394532,0.57032 0.343745,0.3776 0.51562,0.89193 0.515625,1.54297 m -0.71875,-0.21094 c -0.0052,-0.39323 -0.115889,-0.70703 -0.332032,-0.94141 -0.213544,-0.23437 -0.497398,-0.35156 -0.851562,-0.35156 -0.401044,0 -0.722658,0.11328 -0.964844,0.33984 -0.239584,0.22657 -0.377605,0.54558 -0.414062,0.95703 l 2.5625,-0.004"
         style="font-weight:300;fill:#bdcb53;font-family:Source Code Pro;-inkscape-font-specification:Source Code Pro Light;fill-opacity:1;stroke-width:0.1;stroke-miterlimit:4;stroke-dasharray:none"
         id="path4170" />
      <path
         d="m 101.57031,228.07556 0,-2.36719 0.71875,0 0,6.07812 -0.71875,0 0,-0.65625 c -0.15104,0.26042 -0.34245,0.45443 -0.57422,0.58203 -0.22917,0.125 -0.50521,0.1875 -0.82812,0.1875 -0.528649,0 -0.959638,-0.21093 -1.29297,-0.63281 -0.33073,-0.42187 -0.496094,-0.97656 -0.496094,-1.66406 0,-0.6875 0.165364,-1.24218 0.496094,-1.66406 0.333332,-0.42187 0.764321,-0.63281 1.29297,-0.63282 0.32291,1e-5 0.59895,0.0638 0.82812,0.19141 0.23177,0.125 0.42318,0.31771 0.57422,0.57813 m -2.449216,1.52734 c -10e-7,0.52865 0.108071,0.94401 0.324218,1.24609 0.218749,0.29948 0.518228,0.44922 0.898438,0.44922 0.38021,0 0.67968,-0.14974 0.89844,-0.44922 0.21874,-0.30208 0.32812,-0.71744 0.32812,-1.24609 0,-0.52864 -0.10938,-0.94271 -0.32812,-1.24219 -0.21876,-0.30208 -0.51823,-0.45312 -0.89844,-0.45312 -0.38021,0 -0.679689,0.15104 -0.898438,0.45312 -0.216147,0.29948 -0.324219,0.71355 -0.324218,1.24219"
         style="font-weight:300;fill:#bdcb53;font-family:Source Code Pro;-inkscape-font-specification:Source Code Pro Light;fill-opacity:1;stroke-width:0.1;stroke-miterlimit:4;stroke-dasharray:none"
         id="path4172" />
      <path
         d="m 107.13672,229.00134 0,2.13672 1.26562,0 c 0.42448,0 0.73828,-0.0872 0.94141,-0.26172 0.20573,-0.17709 0.30859,-0.44662 0.30859,-0.8086 0,-0.36458 -0.10286,-0.63281 -0.30859,-0.80468 -0.20313,-0.17448 -0.51693,-0.26172 -0.94141,-0.26172 l -1.26562,0 m 0,-2.39844 0,1.75781 1.16797,0 c 0.38541,10e-6 0.67187,-0.0716 0.85937,-0.21484 0.1901,-0.14583 0.28515,-0.36719 0.28516,-0.66406 -1e-5,-0.29427 -0.0951,-0.51432 -0.28516,-0.66016 -0.1875,-0.14583 -0.47396,-0.21875 -0.85937,-0.21875 m -1.95703,-0.64844 2.01562,0 c 0.60156,10e-6 1.0651,0.12501 1.39063,0.375 0.32551,0.25001 0.48827,0.60548 0.48828,1.06641 -10e-6,0.35677 -0.0833,0.64063 -0.25,0.85156 -0.16667,0.21094 -0.41146,0.34245 -0.73438,0.39453 0.38802,0.0833 0.6888,0.25782 0.90235,0.52344 0.21614,0.26302 0.32421,0.59245 0.32422,0.98828 -1e-5,0.52084 -0.17709,0.92318 -0.53125,1.20703 -0.35418,0.28386 -0.85808,0.42578 -1.51172,0.42578 l -2.09375,0 0,-5.83203"
         style="font-weight:300;fill:#bdcb53;fill-opacity:1;font-family:Source Code Pro;-inkscape-font-specification:Source Code Pro Light"
         id="path4174"
         inkscape:connector-curvature="0"
         sodipodi:nodetypes="ccscscsccccccccccccccccsscc" />
      <path
         d="m 113.62109,232.19274 c -0.20312,0.52084 -0.40104,0.86068 -0.59375,1.01953 -0.19271,0.15886 -0.45052,0.23828 -0.77343,0.23829 l -0.57422,0 0,-0.60157 0.42187,0 c 0.19792,0 0.35156,-0.0469 0.46094,-0.14062 0.10937,-0.0937 0.23047,-0.31511 0.36328,-0.66406 l 0.12891,-0.32813 -1.76953,-4.30469 0.76172,0 1.36718,3.42188 1.36719,-3.42188 0.76172,0 -1.92188,4.78125"
         style="font-weight:300;fill:#bdcb53;font-family:Source Code Pro;-inkscape-font-specification:Source Code Pro Light;fill-opacity:1;stroke-width:1.3;stroke-miterlimit:4;stroke-dasharray:none"
         id="path4176" />
    </g>
    <g
       transform="translate(28.461048,4.5961941)"
       style="font-size:8px;font-style:normal;font-variant:normal;font-weight:300;font-stretch:normal;text-align:start;line-height:125%;letter-spacing:0px;word-spacing:0px;writing-mode:lr-tb;text-anchor:start;fill:#bdcb53;fill-opacity:1;stroke:none;font-family:Source Code Pro;-inkscape-font-specification:Source Code Pro Light;stroke-width:0.1;stroke-miterlimit:4;stroke-dasharray:none"
       id="flowRoot4149">
      <path
         d="m 94.128906,240.82946 0.789063,0 0,5.42578 c -2e-6,0.70313 -0.134116,1.21354 -0.402344,1.53125 -0.265626,0.31771 -0.694011,0.47656 -1.285156,0.47657 l -0.300782,0 0,-0.66407 0.246094,0 c 0.348958,0 0.595052,-0.0976 0.738281,-0.29297 0.143229,-0.19531 0.214843,-0.54557 0.214844,-1.05078 l 0,-5.42578"
         style="fill:#bdcb53;fill-opacity:1;stroke-width:0.1;stroke-miterlimit:4;stroke-dasharray:none"
         id="path4179" />
      <path
         d="m 95.8125,244.14977 2.105469,0 0,0.64063 -2.105469,0 0,-0.64063"
         style="fill:#bdcb53;fill-opacity:1;stroke-width:0.1;stroke-miterlimit:4;stroke-dasharray:none"
         id="path4181" />
      <path
         d="m 103.46484,241.27868 0,0.83203 c -0.26563,-0.24739 -0.54948,-0.43228 -0.85156,-0.55469 -0.29948,-0.12239 -0.61849,-0.18358 -0.95703,-0.18359 -0.66667,1e-5 -1.17709,0.20443 -1.53125,0.61328 -0.354168,0.40626 -0.531251,0.9948 -0.53125,1.76563 -10e-7,0.76823 0.177082,1.35677 0.53125,1.76562 0.35416,0.40625 0.86458,0.60938 1.53125,0.60938 0.33854,0 0.65755,-0.0612 0.95703,-0.1836 0.30208,-0.12239 0.58593,-0.30729 0.85156,-0.55468 l 0,0.82421 c -0.27604,0.1875 -0.56901,0.32813 -0.8789,0.42188 -0.3073,0.0937 -0.63282,0.14062 -0.97656,0.14062 -0.88282,0 -1.57813,-0.26953 -2.085943,-0.80859 -0.507813,-0.54166 -0.761719,-1.27995 -0.761718,-2.21484 -10e-7,-0.9375 0.253905,-1.67578 0.761718,-2.21485 0.507813,-0.54166 1.203123,-0.81249 2.085943,-0.8125 0.34895,1e-5 0.67707,0.0469 0.98437,0.14063 0.30989,0.0911 0.60026,0.22917 0.87109,0.41406"
         style="fill:#bdcb53;fill-opacity:1;stroke-width:0.1;stroke-miterlimit:4;stroke-dasharray:none"
         id="path4183" />
      <path
         d="m 106.64844,244.46227 c -0.58073,1e-5 -0.98308,0.0664 -1.20703,0.19922 -0.22396,0.13282 -0.33594,0.35938 -0.33594,0.67969 0,0.25521 0.0833,0.45833 0.25,0.60938 0.16927,0.14843 0.39843,0.22265 0.6875,0.22265 0.39843,0 0.71744,-0.14062 0.95703,-0.42187 0.24218,-0.28386 0.36328,-0.66016 0.36328,-1.12891 l 0,-0.16016 -0.71484,0 m 1.43359,-0.29687 0,2.49609 -0.71875,0 0,-0.66406 c -0.16406,0.26563 -0.36849,0.46224 -0.61328,0.58984 -0.24479,0.125 -0.54427,0.1875 -0.89844,0.1875 -0.44792,0 -0.80469,-0.125 -1.07031,-0.375 -0.26302,-0.2526 -0.39453,-0.58984 -0.39453,-1.01171 0,-0.49219 0.16406,-0.86328 0.49219,-1.11329 0.33072,-0.24999 0.82291,-0.37499 1.47656,-0.375 l 1.00781,0 0,-0.0703 c 0,-0.33072 -0.10938,-0.58593 -0.32812,-0.76562 -0.21615,-0.18229 -0.52084,-0.27344 -0.91407,-0.27344 -0.25,0 -0.49349,0.0299 -0.73046,0.0898 -0.23699,0.0599 -0.46485,0.14975 -0.6836,0.26953 l 0,-0.66406 c 0.26302,-0.10156 0.51823,-0.17708 0.76563,-0.22656 0.24739,-0.0521 0.48828,-0.0781 0.72265,-0.0781 0.63281,1e-5 1.10547,0.16407 1.41797,0.49219 0.3125,0.32813 0.46875,0.82553 0.46875,1.49219"
         style="fill:#bdcb53;fill-opacity:1;stroke-width:0.1;stroke-miterlimit:4;stroke-dasharray:none"
         id="path4185" />
      <path
         d="m 110.27734,241.04431 0,1.24218 1.48047,0 0,0.5586 -1.48047,0 0,2.375 c 0,0.35677 0.0482,0.58594 0.14454,0.6875 0.099,0.10156 0.29817,0.15234 0.59765,0.15234 l 0.73828,0 0,0.60156 -0.73828,0 c -0.55469,0 -0.9375,-0.10286 -1.14844,-0.30859 -0.21093,-0.20833 -0.3164,-0.58594 -0.3164,-1.13281 l 0,-2.375 -0.52735,0 0,-0.5586 0.52735,0 0,-1.24218 0.72265,0"
         style="fill:#bdcb53;fill-opacity:1;stroke-width:0.1;stroke-miterlimit:4;stroke-dasharray:none"
         id="path4187" />
    </g>
  </g>
  <g
     inkscape:label="produced by"
     id="g4189"
     inkscape:groupmode="layer"
     style="display:none">
    <g
       id="g4191"
       style="font-size:8px;font-style:normal;font-variant:normal;font-weight:normal;font-stretch:normal;text-align:start;line-height:125%;letter-spacing:0px;word-spacing:0px;writing-mode:lr-tb;text-anchor:start;fill:#bdcb53;fill-opacity:1;stroke:none;font-family:'0xA000-Mono';-inkscape-font-specification:Sans"
       transform="translate(18.738329,10.341437)">
      <path
         id="path4193"
         style="font-weight:300;fill:#bdcb53;fill-opacity:1;font-family:Source Code Pro;-inkscape-font-specification:Source Code Pro Light"
         d="m 67.324219,226.6029 0,2.19141 0.992187,0 c 0.367185,0 0.651039,-0.095 0.851563,-0.28516 0.200517,-0.1901 0.300777,-0.46093 0.300781,-0.8125 -4e-6,-0.34895 -0.100264,-0.61849 -0.300781,-0.80859 -0.200524,-0.1901 -0.484378,-0.28516 -0.851563,-0.28516 l -0.992187,0 m -0.789063,-0.64844 1.78125,0 c 0.653643,10e-6 1.147132,0.14845 1.480469,0.44531 0.335933,0.29428 0.503902,0.72657 0.503906,1.29688 -4e-6,0.57552 -0.167973,1.01042 -0.503906,1.30469 -0.333337,0.29427 -0.826826,0.44141 -1.480469,0.4414 l -0.992187,0 0,2.34375 -0.789063,0 0,-5.83203"
         inkscape:connector-curvature="0" />
      <path
         id="path4195"
         style="font-weight:300;fill:#bdcb53;fill-opacity:1;font-family:Source Code Pro;-inkscape-font-specification:Source Code Pro Light"
         d="m 73.726562,228.08337 c -0.08073,-0.0469 -0.169273,-0.0807 -0.265625,-0.10156 -0.09375,-0.0234 -0.197919,-0.0352 -0.3125,-0.0352 -0.406252,0 -0.718751,0.13282 -0.9375,0.39844 -0.216147,0.26302 -0.32422,0.64193 -0.324218,1.13672 l 0,2.30468 -0.722657,0 0,-4.375 0.722657,0 0,0.67969 c 0.15104,-0.26562 0.347654,-0.46223 0.589843,-0.58984 0.242186,-0.13021 0.536456,-0.19531 0.882813,-0.19532 0.04948,1e-5 0.104164,0.004 0.164062,0.0117 0.05989,0.005 0.126299,0.0143 0.199219,0.0274 l 0.0039,0.73828"
         inkscape:connector-curvature="0" />
      <path
         id="path4197"
         style="font-weight:300;fill:#bdcb53;fill-opacity:1;font-family:Source Code Pro;-inkscape-font-specification:Source Code Pro Light"
         d="m 76.011719,227.9154 c -0.385419,0 -0.690106,0.15104 -0.914063,0.45312 -0.223959,0.29949 -0.335938,0.71094 -0.335937,1.23438 -10e-7,0.52344 0.110676,0.9362 0.332031,1.23828 0.223957,0.29948 0.529946,0.44922 0.917969,0.44922 0.382809,0 0.686195,-0.15104 0.910156,-0.45313 0.223955,-0.30208 0.335934,-0.71354 0.335937,-1.23437 -3e-6,-0.51823 -0.111982,-0.92838 -0.335937,-1.23047 -0.223961,-0.30468 -0.527347,-0.45703 -0.910156,-0.45703 m 0,-0.60938 c 0.624997,1e-5 1.115882,0.20313 1.472656,0.60938 0.356767,0.40625 0.535152,0.96875 0.535156,1.6875 -4e-6,0.71615 -0.178389,1.27865 -0.535156,1.6875 -0.356774,0.40625 -0.847659,0.60937 -1.472656,0.60937 -0.627606,0 -1.119793,-0.20312 -1.476563,-0.60937 -0.354167,-0.40885 -0.53125,-0.97135 -0.53125,-1.6875 0,-0.71875 0.177083,-1.28125 0.53125,-1.6875 0.35677,-0.40625 0.848957,-0.60937 1.476563,-0.60938"
         inkscape:connector-curvature="0" />
      <path
         id="path4199"
         style="font-weight:300;fill:#bdcb53;fill-opacity:1;font-family:Source Code Pro;-inkscape-font-specification:Source Code Pro Light"
         d="m 82.085937,228.07556 0,-2.36719 0.71875,0 0,6.07812 -0.71875,0 0,-0.65625 c -0.151045,0.26042 -0.342451,0.45443 -0.574218,0.58203 -0.22917,0.125 -0.505211,0.1875 -0.828125,0.1875 -0.528648,0 -0.959637,-0.21093 -1.292969,-0.63281 -0.33073,-0.42187 -0.496094,-0.97656 -0.496094,-1.66406 0,-0.6875 0.165364,-1.24218 0.496094,-1.66406 0.333332,-0.42187 0.764321,-0.63281 1.292969,-0.63282 0.322914,1e-5 0.598955,0.0638 0.828125,0.19141 0.231767,0.125 0.423173,0.31771 0.574218,0.57813 m -2.449218,1.52734 c -10e-7,0.52865 0.108071,0.94401 0.324218,1.24609 0.218749,0.29948 0.518228,0.44922 0.898438,0.44922 0.380206,0 0.679684,-0.14974 0.898437,-0.44922 0.218747,-0.30208 0.328122,-0.71744 0.328125,-1.24609 -3e-6,-0.52864 -0.109378,-0.94271 -0.328125,-1.24219 -0.218753,-0.30208 -0.518231,-0.45312 -0.898437,-0.45312 -0.38021,0 -0.679689,0.15104 -0.898438,0.45312 -0.216147,0.29948 -0.324219,0.71355 -0.324218,1.24219"
         inkscape:connector-curvature="0" />
      <path
         id="path4201"
         style="font-weight:300;fill:#bdcb53;fill-opacity:1;font-family:Source Code Pro;-inkscape-font-specification:Source Code Pro Light"
         d="m 84.210937,230.05993 0,-2.64844 0.71875,0 0,2.6211 c -10e-7,0.41406 0.08073,0.72526 0.242188,0.93359 0.161457,0.20573 0.403644,0.3086 0.726562,0.30859 0.388019,1e-5 0.694008,-0.12369 0.917969,-0.37109 0.226559,-0.24739 0.33984,-0.58463 0.339844,-1.01172 l 0,-2.48047 0.71875,0 0,4.375 -0.71875,0 0,-0.67187 c -0.174483,0.26562 -0.377607,0.46354 -0.609375,0.59375 -0.229169,0.1276 -0.496096,0.1914 -0.800781,0.1914 -0.502606,0 -0.884116,-0.15625 -1.144532,-0.46875 -0.260417,-0.31249 -0.390625,-0.76953 -0.390625,-1.37109 m 1.808594,-2.75391 0,0"
         inkscape:connector-curvature="0" />
      <path
         id="path4203"
         style="font-weight:300;fill:#bdcb53;fill-opacity:1;font-family:Source Code Pro;-inkscape-font-specification:Source Code Pro Light"
         d="m 92.511719,227.57946 0,0.67188 c -0.203129,-0.11198 -0.407556,-0.19531 -0.613282,-0.25 -0.203128,-0.0573 -0.408857,-0.0859 -0.617187,-0.0859 -0.466148,0 -0.828127,0.14844 -1.085938,0.44531 -0.257813,0.29428 -0.386719,0.70834 -0.386718,1.24219 -10e-7,0.53386 0.128905,0.94922 0.386718,1.24609 0.257811,0.29427 0.61979,0.44141 1.085938,0.44141 0.20833,0 0.414059,-0.0273 0.617187,-0.082 0.205726,-0.0573 0.410153,-0.14193 0.613282,-0.25391 l 0,0.66406 c -0.200525,0.0937 -0.408858,0.16407 -0.625,0.21094 -0.213545,0.0469 -0.441409,0.0703 -0.683594,0.0703 -0.658856,0 -1.182293,-0.20703 -1.570313,-0.62109 -0.388021,-0.41406 -0.582031,-0.97265 -0.582031,-1.67578 0,-0.71354 0.195312,-1.27474 0.585938,-1.68359 0.393227,-0.40885 0.930987,-0.61328 1.613281,-0.61329 0.221351,1e-5 0.437497,0.0234 0.648437,0.0703 0.210934,0.0443 0.415361,0.11198 0.613282,0.20312"
         inkscape:connector-curvature="0" />
      <path
         id="path4205"
         style="font-weight:300;fill:#bdcb53;fill-opacity:1;font-family:Source Code Pro;-inkscape-font-specification:Source Code Pro Light"
         d="m 97.511719,229.41931 0,0.35156 -3.304688,0 c 0.03125,0.49479 0.179686,0.8724 0.445313,1.13281 0.268227,0.25781 0.640622,0.38672 1.117187,0.38672 0.276039,0 0.542966,-0.0339 0.800781,-0.10156 0.260413,-0.0677 0.518226,-0.16927 0.773438,-0.30469 l 0,0.67969 c -0.257817,0.10937 -0.522139,0.19271 -0.792969,0.25 -0.270836,0.0573 -0.545576,0.0859 -0.824219,0.0859 -0.697918,0 -1.251303,-0.20312 -1.660156,-0.60937 -0.40625,-0.40625 -0.609375,-0.95573 -0.609375,-1.64844 0,-0.71614 0.192708,-1.28385 0.578125,-1.70312 0.38802,-0.42187 0.910155,-0.63281 1.566406,-0.63282 0.588539,1e-5 1.053382,0.19011 1.394532,0.57032 0.343745,0.3776 0.51562,0.89193 0.515625,1.54297 m -0.71875,-0.21094 c -0.0052,-0.39323 -0.115889,-0.70703 -0.332032,-0.94141 -0.213544,-0.23437 -0.497398,-0.35156 -0.851562,-0.35156 -0.401044,0 -0.722658,0.11328 -0.964844,0.33984 -0.239584,0.22657 -0.377605,0.54558 -0.414062,0.95703 l 2.5625,-0.004"
         inkscape:connector-curvature="0" />
      <path
         id="path4207"
         style="font-weight:300;fill:#bdcb53;fill-opacity:1;font-family:Source Code Pro;-inkscape-font-specification:Source Code Pro Light"
         d="m 101.57031,228.07556 0,-2.36719 0.71875,0 0,6.07812 -0.71875,0 0,-0.65625 c -0.15104,0.26042 -0.34245,0.45443 -0.57422,0.58203 -0.22917,0.125 -0.50521,0.1875 -0.82812,0.1875 -0.528649,0 -0.959638,-0.21093 -1.29297,-0.63281 -0.33073,-0.42187 -0.496094,-0.97656 -0.496094,-1.66406 0,-0.6875 0.165364,-1.24218 0.496094,-1.66406 0.333332,-0.42187 0.764321,-0.63281 1.29297,-0.63282 0.32291,1e-5 0.59895,0.0638 0.82812,0.19141 0.23177,0.125 0.42318,0.31771 0.57422,0.57813 m -2.449216,1.52734 c -10e-7,0.52865 0.108071,0.94401 0.324218,1.24609 0.218749,0.29948 0.518228,0.44922 0.898438,0.44922 0.38021,0 0.67968,-0.14974 0.89844,-0.44922 0.21874,-0.30208 0.32812,-0.71744 0.32812,-1.24609 0,-0.52864 -0.10938,-0.94271 -0.32812,-1.24219 -0.21876,-0.30208 -0.51823,-0.45312 -0.89844,-0.45312 -0.38021,0 -0.679689,0.15104 -0.898438,0.45312 -0.216147,0.29948 -0.324219,0.71355 -0.324218,1.24219"
         inkscape:connector-curvature="0" />
      <path
         id="path4209"
         style="font-weight:300;fill:#bdcb53;fill-opacity:1;font-family:Source Code Pro;-inkscape-font-specification:Source Code Pro Light"
         d="m 107.13672,229.00134 0,2.13672 1.26562,0 c 0.42448,0 0.73828,-0.0872 0.94141,-0.26172 0.20573,-0.17709 0.30859,-0.44662 0.30859,-0.8086 0,-0.36458 -0.10286,-0.63281 -0.30859,-0.80468 -0.20313,-0.17448 -0.51693,-0.26172 -0.94141,-0.26172 l -1.26562,0 m 0,-2.39844 0,1.75781 1.16797,0 c 0.38541,10e-6 0.67187,-0.0716 0.85937,-0.21484 0.1901,-0.14583 0.28515,-0.36719 0.28516,-0.66406 -1e-5,-0.29427 -0.0951,-0.51432 -0.28516,-0.66016 -0.1875,-0.14583 -0.47396,-0.21875 -0.85937,-0.21875 l -1.16797,0 m -0.78906,-0.64844 2.01562,0 c 0.60156,10e-6 1.0651,0.12501 1.39063,0.375 0.32551,0.25001 0.48827,0.60548 0.48828,1.06641 -10e-6,0.35677 -0.0833,0.64063 -0.25,0.85156 -0.16667,0.21094 -0.41146,0.34245 -0.73438,0.39453 0.38802,0.0833 0.6888,0.25782 0.90235,0.52344 0.21614,0.26302 0.32421,0.59245 0.32422,0.98828 -1e-5,0.52084 -0.17709,0.92318 -0.53125,1.20703 -0.35418,0.28386 -0.85808,0.42578 -1.51172,0.42578 l -2.09375,0 0,-5.83203"
         inkscape:connector-curvature="0" />
      <path
         id="path4211"
         style="font-weight:300;fill:#bdcb53;fill-opacity:1;font-family:Source Code Pro;-inkscape-font-specification:Source Code Pro Light"
         d="m 113.62109,232.19274 c -0.20312,0.52084 -0.40104,0.86068 -0.59375,1.01953 -0.19271,0.15886 -0.45052,0.23828 -0.77343,0.23829 l -0.57422,0 0,-0.60157 0.42187,0 c 0.19792,0 0.35156,-0.0469 0.46094,-0.14062 0.10937,-0.0937 0.23047,-0.31511 0.36328,-0.66406 l 0.12891,-0.32813 -1.76953,-4.30469 0.76172,0 1.36718,3.42188 1.36719,-3.42188 0.76172,0 -1.92188,4.78125"
         inkscape:connector-curvature="0" />
    </g>
    <g
       id="g4213"
       style="font-size:8px;font-style:normal;font-variant:normal;font-weight:300;font-stretch:normal;text-align:start;line-height:125%;letter-spacing:0px;word-spacing:0px;writing-mode:lr-tb;text-anchor:start;fill:#bdcb53;fill-opacity:1;stroke:none;font-family:Source Code Pro;-inkscape-font-specification:Source Code Pro Light"
       transform="translate(28.461048,4.5961941)">
      <path
         id="path4215"
         style="fill:#bdcb53;fill-opacity:1"
         d="m 94.128906,240.82946 0.789063,0 0,5.42578 c -2e-6,0.70313 -0.134116,1.21354 -0.402344,1.53125 -0.265626,0.31771 -0.694011,0.47656 -1.285156,0.47657 l -0.300782,0 0,-0.66407 0.246094,0 c 0.348958,0 0.595052,-0.0976 0.738281,-0.29297 0.143229,-0.19531 0.214843,-0.54557 0.214844,-1.05078 l 0,-5.42578"
         inkscape:connector-curvature="0" />
      <path
         id="path4217"
         style="fill:#bdcb53;fill-opacity:1"
         d="m 95.8125,244.14977 2.105469,0 0,0.64063 -2.105469,0 0,-0.64063"
         inkscape:connector-curvature="0" />
      <path
         id="path4219"
         style="fill:#bdcb53;fill-opacity:1"
         d="m 103.46484,241.27868 0,0.83203 c -0.26563,-0.24739 -0.54948,-0.43228 -0.85156,-0.55469 -0.29948,-0.12239 -0.61849,-0.18358 -0.95703,-0.18359 -0.66667,1e-5 -1.17709,0.20443 -1.53125,0.61328 -0.354168,0.40626 -0.531251,0.9948 -0.53125,1.76563 -10e-7,0.76823 0.177082,1.35677 0.53125,1.76562 0.35416,0.40625 0.86458,0.60938 1.53125,0.60938 0.33854,0 0.65755,-0.0612 0.95703,-0.1836 0.30208,-0.12239 0.58593,-0.30729 0.85156,-0.55468 l 0,0.82421 c -0.27604,0.1875 -0.56901,0.32813 -0.8789,0.42188 -0.3073,0.0937 -0.63282,0.14062 -0.97656,0.14062 -0.88282,0 -1.57813,-0.26953 -2.085943,-0.80859 -0.507813,-0.54166 -0.761719,-1.27995 -0.761718,-2.21484 -10e-7,-0.9375 0.253905,-1.67578 0.761718,-2.21485 0.507813,-0.54166 1.203123,-0.81249 2.085943,-0.8125 0.34895,1e-5 0.67707,0.0469 0.98437,0.14063 0.30989,0.0911 0.60026,0.22917 0.87109,0.41406"
         inkscape:connector-curvature="0" />
      <path
         id="path4221"
         style="fill:#bdcb53;fill-opacity:1"
         d="m 106.64844,244.46227 c -0.58073,1e-5 -0.98308,0.0664 -1.20703,0.19922 -0.22396,0.13282 -0.33594,0.35938 -0.33594,0.67969 0,0.25521 0.0833,0.45833 0.25,0.60938 0.16927,0.14843 0.39843,0.22265 0.6875,0.22265 0.39843,0 0.71744,-0.14062 0.95703,-0.42187 0.24218,-0.28386 0.36328,-0.66016 0.36328,-1.12891 l 0,-0.16016 -0.71484,0 m 1.43359,-0.29687 0,2.49609 -0.71875,0 0,-0.66406 c -0.16406,0.26563 -0.36849,0.46224 -0.61328,0.58984 -0.24479,0.125 -0.54427,0.1875 -0.89844,0.1875 -0.44792,0 -0.80469,-0.125 -1.07031,-0.375 -0.26302,-0.2526 -0.39453,-0.58984 -0.39453,-1.01171 0,-0.49219 0.16406,-0.86328 0.49219,-1.11329 0.33072,-0.24999 0.82291,-0.37499 1.47656,-0.375 l 1.00781,0 0,-0.0703 c 0,-0.33072 -0.10938,-0.58593 -0.32812,-0.76562 -0.21615,-0.18229 -0.52084,-0.27344 -0.91407,-0.27344 -0.25,0 -0.49349,0.0299 -0.73046,0.0898 -0.23699,0.0599 -0.46485,0.14975 -0.6836,0.26953 l 0,-0.66406 c 0.26302,-0.10156 0.51823,-0.17708 0.76563,-0.22656 0.24739,-0.0521 0.48828,-0.0781 0.72265,-0.0781 0.63281,1e-5 1.10547,0.16407 1.41797,0.49219 0.3125,0.32813 0.46875,0.82553 0.46875,1.49219"
         inkscape:connector-curvature="0" />
      <path
         id="path4223"
         style="fill:#bdcb53;fill-opacity:1"
         d="m 110.27734,241.04431 0,1.24218 1.48047,0 0,0.5586 -1.48047,0 0,2.375 c 0,0.35677 0.0482,0.58594 0.14454,0.6875 0.099,0.10156 0.29817,0.15234 0.59765,0.15234 l 0.73828,0 0,0.60156 -0.73828,0 c -0.55469,0 -0.9375,-0.10286 -1.14844,-0.30859 -0.21093,-0.20833 -0.3164,-0.58594 -0.3164,-1.13281 l 0,-2.375 -0.52735,0 0,-0.5586 0.52735,0 0,-1.24218 0.72265,0"
         inkscape:connector-curvature="0" />
    </g>
  </g>
  <g
     inkscape:groupmode="layer"
     id="layer9"
     inkscape:label="SimulatorBackground"
     style="display:inline">
    <rect
       style="fill:#3aa13a;fill-opacity:1;fill-rule:nonzero;stroke:#000000;stroke-width:0;stroke-linecap:square;stroke-linejoin:round;stroke-miterlimit:4;stroke-opacity:1;stroke-dasharray:none;stroke-dashoffset:0"
       id="rect4064-3"
       width="84.982582"
       height="21.939341"
       x="32.020084"
       y="112.62458"
       ry="5.9617772" />
  </g>
  <g
     inkscape:groupmode="layer"
     id="layer8"
     inkscape:label="Simulator"
     style="display:inline">
    <flowRoot
       xml:space="preserve"
       id="flowRoot4055-0"
       style="font-size:20px;font-style:normal;font-variant:normal;font-weight:300;font-stretch:normal;text-align:start;line-height:125%;letter-spacing:0px;word-spacing:0px;writing-mode:lr-tb;text-anchor:start;fill:#ffffff;fill-opacity:1;stroke:none;font-family:Source Code Pro;-inkscape-font-specification:Source Code Pro Light"
       transform="matrix(0.77388013,0,0,0.77388013,10.312254,53.472139)"><flowRegion
         id="flowRegion4057-1"><rect
           id="rect4059-8"
           width="110.5"
           height="34"
           x="32.5"
           y="77.25"
           style="font-style:normal;font-variant:normal;font-weight:300;font-stretch:normal;fill:#ffffff;fill-opacity:1;font-family:Source Code Pro;-inkscape-font-specification:Source Code Pro Light" /></flowRegion><flowPara
         id="flowPara4061-4">Simulator</flowPara></flowRoot>  </g>
  <g
     inkscape:groupmode="layer"
     id="layer7"
     inkscape:label="ReferenceBackground"
     style="display:inline">
    <rect
       style="fill:#3aa13a;fill-opacity:1;fill-rule:nonzero;stroke:#000000;stroke-width:0;stroke-linecap:square;stroke-linejoin:round;stroke-miterlimit:4;stroke-opacity:1;stroke-dasharray:none;stroke-dashoffset:0"
       id="rect4064"
       width="84.982582"
       height="21.939341"
       x="32.000576"
       y="79.19194"
       ry="5.9617772" />
  </g>
  <g
     inkscape:groupmode="layer"
     id="layer6"
     inkscape:label="Reference"
     style="display:inline">
    <flowRoot
       xml:space="preserve"
       id="flowRoot4055"
       style="font-size:20px;font-style:normal;font-variant:normal;font-weight:300;font-stretch:normal;text-align:start;line-height:125%;letter-spacing:0px;word-spacing:0px;writing-mode:lr-tb;text-anchor:start;fill:#ffffff;fill-opacity:1;stroke:none;font-family:Source Code Pro;-inkscape-font-specification:Source Code Pro Light"
       transform="matrix(0.77388013,0,0,0.77388013,10.292744,20.039494)"><flowRegion
         id="flowRegion4057"><rect
           id="rect4059"
           width="110.5"
           height="34"
           x="32.5"
           y="77.25"
           style="font-style:normal;font-variant:normal;font-weight:300;font-stretch:normal;fill:#ffffff;fill-opacity:1;font-family:Source Code Pro;-inkscape-font-specification:Source Code Pro Light" /></flowRegion><flowPara
         id="flowPara4061">Reference</flowPara></flowRoot>  </g>
  <g
     inkscape:groupmode="layer"
     id="layer4"
     inkscape:label="chip"
     transform="translate(0,-796.36218)"
     style="display:inline">
    <rect
       style="fill:#e4dede;fill-opacity:1;fill-rule:nonzero;stroke:#000000;stroke-width:0;stroke-linecap:square;stroke-linejoin:round;stroke-miterlimit:4;stroke-opacity:1;stroke-dasharray:none;stroke-dashoffset:0"
       id="rect3842"
       width="132.1718"
       height="42.955833"
       x="6.8583755"
       y="811.51794"
       ry="9.2048216" />
  </g>
  <g
     inkscape:groupmode="layer"
     id="layer2"
     inkscape:label="Assembly BackDrop"
     transform="translate(0,-796.36218)"
     style="display:none">
    <path
       style="fill:#979797;fill-opacity:1;fill-rule:nonzero;stroke:#000000;stroke-width:0;stroke-linecap:square;stroke-linejoin:miter;stroke-miterlimit:4;stroke-opacity:1;stroke-dasharray:none;stroke-dashoffset:0"
       d="m 69.751345,814.89119 3.769266,-0.004 c 0.649059,0 -0.152715,3.37592 0.688106,3.40542 0,0 3.735412,0.0654 3.587898,0.0654 1.194861,0.0442 2.278443,1.98915 3.384127,1.92082 1.03483,-0.064 0.309131,-5.39582 0.958188,-5.39582 l 3.65202,-9.5e-4 c 1.194853,-0.008 -0.259301,5.19665 1.271636,5.10989 1.862082,-0.10558 0.656921,-1.94071 1.394488,-1.97022 l 3.445709,-9.4e-4 c 0.427783,0.0738 -0.540583,2.61505 1.550537,2.65428 1.70626,0.0319 1.31155,-2.58242 2.27039,-2.65617 1.57751,-4.6e-4 2.36473,-9.6e-4 3.94223,-0.002 0,0 0.0865,8.57847 0.0865,11.44297 4.69508,11.20372 33.11344,-0.93094 33.57825,11.87396 -0.0428,3.20262 0.69356,10.12465 -6.23246,9.12329 l -29.1391,0 -11.347816,0 -11.347808,0 -11.347808,0 -11.347817,0 -11.180914,0 c -6.592238,-0.41723 -16.582898,-20.29781 -20.365504,-20.29781 -0.94565,0 -2.12771,0 -3.368879,0 -0.429502,0 -0.430917,-0.70521 -0.447979,-1.62031 0.01407,-2.27851 -2.463539,-2.27787 -2.474293,-0.0266 -0.04041,1.31266 -0.252391,1.61715 -0.994942,1.63204 -2.244476,0.0451 -3.563682,0.62986 -3.519886,-2.69934 0,0 -7.56e-4,-10.24417 0.0028,-10.37823 0.02407,-0.90018 1.541387,-2.16161 3.222139,-2.16223 1.283615,-4.5e-4 2.790809,-8.8e-4 4.42802,-9.3e-4 0.818607,-1.9e-4 3.435987,0.10537 4.083563,1.88765 0.487732,3.66081 -0.575184,5.30994 1.300948,3.3624 0.53285,-0.79819 1.484808,-1.88842 2.376307,-1.88855 0.891489,-1.3e-4 3.648688,-2.5e-4 5.130985,-3.7e-4 0.741144,-6e-5 -0.446741,2.10682 1.05763,2.10682 0.752415,0 1.271841,-2.10719 2.427835,-2.10719 1.266659,-9.3e-4 3.738857,-0.002 4.979845,-0.002 1.595032,-9.4e-4 0.1002,2.06355 1.398501,2.06278 0.973785,-5.7e-4 0.787357,-2.06648 2.63899,-2.06741 0.719307,-3.6e-4 4.573852,-7.2e-4 5.978093,-9.4e-4 1.404231,-3.6e-4 1.243236,1.82844 2.074171,1.8281 0.576327,-0.15443 -0.03323,-1.85605 1.146874,-1.85605 l 6.503456,-0.0135 c 0.545804,0.0148 0.824215,0.72411 1.370009,0.72411 0.530141,0 1.087868,-0.70544 1.692667,-0.76445 l 4.327645,-0.0135 c 1.106345,0.1032 1.862178,1.43244 2.474474,1.40269 1.390183,-0.0677 0.374999,-4.65705 0.920793,-4.67179 z"
       id="rect3014"
       inkscape:connector-curvature="0"
       sodipodi:nodetypes="ccccsccsccscccccccccccssccscsssccssscsssscccsccscc" />
  </g>
  <g
     style="display:inline"
     transform="translate(0,-796.36218)"
     inkscape:label="Assembly BackDropv2"
     id="g4136"
     inkscape:groupmode="layer">
    <path
       sodipodi:nodetypes="ccccsccsccscccccccccccssccscsssccssscssssccssccscc"
       inkscape:connector-curvature="0"
       id="path4138"
       d="m 69.441986,814.39119 4.34379,-0.004 c 0.649059,0 -0.152715,3.06342 0.688106,3.09292 0,0 3.470247,0.0654 3.322733,0.0654 1.194861,0.0442 2.276334,2.73332 3.384127,2.73332 0.68472,0 -0.08862,-5.89582 0.56044,-5.89582 l 4.359127,-9.5e-4 c 1.194853,-0.008 -0.126661,5.69371 0.962277,5.60989 1.109419,-0.0854 0.656921,-3.25321 1.394488,-3.28272 l 3.445709,-9.4e-4 c 0.427783,0.0738 0.07173,3.96678 1.550537,3.96678 1.397199,0 1.31155,-3.89492 2.27039,-3.96867 1.57751,-4.6e-4 2.36473,-9.6e-4 3.94223,-0.002 0,0 0.0865,9.89097 0.0865,12.75547 4.69508,11.20372 33.11344,-0.93094 33.57825,11.87396 -0.0428,3.20262 0.69356,10.12465 -6.23246,9.12329 l -29.1391,0 -11.347816,0 -11.347808,0 -11.347808,0 -11.347817,0 -11.180914,0 c -6.592238,-0.41723 -16.582898,-20.29781 -20.365504,-20.29781 -0.94565,0 -2.12771,0 -3.368879,0 -0.849347,0 -0.718179,-0.70521 -0.735241,-1.62031 0.01407,-2.27851 -1.9995,-2.27787 -2.010254,-0.0266 -0.04041,1.31266 0.102278,1.60649 -1.171719,1.63204 -2.244478,0.045 -3.49425,0.62986 -3.450454,-2.69934 0,0 -7.56e-4,-10.24417 0.0028,-10.37823 0.02407,-0.90018 1.471955,-2.77968 3.152707,-2.7803 1.283615,-4.5e-4 2.790809,-8.8e-4 4.42802,-9.3e-4 0.818607,-1.9e-4 3.663718,0.6062 4.083563,2.50572 0.310955,3.7713 -0.08905,5.08897 1.300948,2.98675 0.709627,-0.95287 1.484808,-2.47995 2.376307,-2.48008 0.891489,-1.3e-4 3.891756,-2.5e-4 5.374053,-3.7e-4 0.741144,-6e-5 -0.513032,3.33917 0.814562,3.33917 0.199988,0 1.271841,-3.31744 2.427835,-3.31744 1.266659,-9.3e-4 3.738857,-0.002 4.979845,-0.002 1.595032,-9.4e-4 0.1002,3.00863 1.398501,3.00786 0.973785,-5.7e-4 0.787357,-3.01156 2.63899,-3.01249 0.719307,-3.6e-4 4.573852,-7.2e-4 5.978093,-9.4e-4 1.404231,-3.6e-4 1.243236,2.77352 2.074171,2.77318 0.576327,-0.15443 -0.03323,-2.88952 1.146874,-2.88952 l 6.503456,-0.0135 c 0.546003,-10e-4 0.824215,1.75758 1.370009,1.75758 0.530141,0 1.087868,-1.65052 1.692667,-1.70953 l 4.327645,-0.0135 c 1.106345,0.1032 1.861456,2.34777 2.474474,2.34777 1.036896,0 0.06564,-5.15705 0.611434,-5.17179 z"
       style="fill:#979797;fill-opacity:1;fill-rule:nonzero;stroke:#000000;stroke-width:0;stroke-linecap:square;stroke-linejoin:miter;stroke-miterlimit:4;stroke-opacity:1;stroke-dasharray:none;stroke-dashoffset:0" />
  </g>
  <g
     inkscape:groupmode="layer"
     id="layer3"
     inkscape:label="spacer"
     transform="translate(0,-796.36218)"
     style="display:inline" />
  <g
     inkscape:label="Assembly Simulator"
     inkscape:groupmode="layer"
     id="layer1"
     transform="translate(0,-796.36218)"
     style="display:inline">
    <flowRoot
       xml:space="preserve"
       id="flowRoot2985"
       style="font-size:20px;font-style:normal;font-variant:normal;font-weight:normal;font-stretch:normal;text-align:start;line-height:125%;letter-spacing:0px;word-spacing:0px;writing-mode:lr-tb;text-anchor:start;fill:#000000;fill-opacity:1;stroke:none;font-family:'0xA000-Mono';-inkscape-font-specification:Sans"><flowRegion
         id="flowRegion2987"><rect
           id="rect2989"
           width="11.428572"
           height="22.857143"
           x="125.71429"
           y="135.21933" /></flowRegion><flowPara
         id="flowPara2991" /></flowRoot>    <flowRoot
       xml:space="preserve"
       id="flowRoot2993"
       style="font-size:20px;font-style:normal;font-variant:normal;font-weight:300;font-stretch:normal;text-align:start;line-height:125%;letter-spacing:0px;word-spacing:0px;writing-mode:lr-tb;text-anchor:start;fill:#e4dede;fill-opacity:1;stroke:none;font-family:Source Code Pro;-inkscape-font-specification:Source Code Pro Light"
       transform="matrix(0.94408429,0,0,0.94408429,-313.76658,569.37516)"><flowRegion
         id="flowRegion2995"><rect
           id="rect2997"
           width="100.54922"
           height="27.734161"
           x="342.85715"
           y="258.07648"
           style="font-style:normal;font-variant:normal;font-weight:300;font-stretch:normal;fill:#e4dede;fill-opacity:1;font-family:Source Code Pro;-inkscape-font-specification:Source Code Pro Light" /></flowRegion><flowPara
         id="flowPara2999"
         style="font-style:normal;font-variant:normal;font-weight:bold;font-stretch:normal;fill:#e4dede;fill-opacity:1;font-family:'0xA000-Squareish';-inkscape-font-specification:'0xA000-Squareish Bold'">Assembly</flowPara></flowRoot>    <flowRoot
       xml:space="preserve"
       id="flowRoot3001"
       style="font-size:20px;font-style:normal;font-variant:normal;font-weight:normal;font-stretch:normal;text-align:start;line-height:125%;letter-spacing:0px;word-spacing:0px;writing-mode:lr-tb;text-anchor:start;fill:#000000;fill-opacity:1;stroke:none;font-family:'0xA000-Mono';-inkscape-font-specification:Sans"><flowRegion
         id="flowRegion3003"><rect
           id="rect3005"
           width="27.779196"
           height="45.456863"
           x="720.74384"
           y="527.08289" /></flowRegion><flowPara
         id="flowPara3007" /></flowRoot>    <text
       xml:space="preserve"
       style="font-size:18.88168716px;font-style:normal;font-variant:normal;font-weight:bold;font-stretch:normal;text-align:start;line-height:125%;letter-spacing:0px;word-spacing:0px;writing-mode:lr-tb;text-anchor:start;fill:#e4dede;fill-opacity:1;stroke:none;font-family:'0xA000-Squareish';-inkscape-font-specification:'0xA000-Squareish Bold'"
       x="37.217247"
       y="847.94019"
       id="text3009"
       sodipodi:linespacing="125%"><tspan
         sodipodi:role="line"
         id="tspan3011"
         x="37.217247"
         y="847.94019"
         style="font-weight:bold;fill:#e4dede;fill-opacity:1;-inkscape-font-specification:'0xA000-Squareish Bold'">Simulator</tspan></text>
  </g>
</svg>
